# xmcd
#
# Track frame offsets:
#	150
#	14979
#	28848
#	44461
#	58951
#	72222
#	85493
#	100417
#	114741
#	129639
#	143740
#	157810
#	171168
#	185855
#	200577
#	213890
#	226251
#	239092
#	252547
#	266484
#	279096
#	293306
#	307621
#
# Disc length: 4283 seconds
#
# Revision: 1
# Processed by: cddbd v1.5.1PL0 Copyright (c) Steve Scherf et al.
# Submitted via: audiograbber 1.83.01
#
DISCID=5910b917
DTITLE=Female Blues Singers - Complete Recorded Works - 1996 - Vol 4: C (1921-1
DTITLE=930) DOCD-5508
DYEAR=1996
DGENRE=Blues
TTITLE0=Dangerous Blues
TTITLE1=I Want Some Lovin' Blues
TTITLE2=The Also Ran Blues
TTITLE3=Cry Baby Blues
TTITLE4=You'll Think Of Me Blues
TTITLE5=Aunt Hagar's Children Blues
TTITLE6=Down Home Blues
TTITLE7=Heart Broken Blues
TTITLE8=I Want My Daddy Now
TTITLE9=Decatur Street Blues
TTITLE10=Got To Have My Daddy Blues
TTITLE11=The Darned Blues
TTITLE12=The Jim Jam Blues
TTITLE13=When I Go Your Good Thing's Going Too
TTITLE14=Once I Did
TTITLE15=I Want Plenty Grease In My Frying Pan
TTITLE16=Come Get Me, Papa, Before I Faint
TTITLE17=Never Again
TTITLE18=Pacific Coast Blues
TTITLE19=Do What You Did Last Night
TTITLE20=(Since You've Been Gone) There's Been Some Changes Made
TTITLE21=Unkind Blues
TTITLE22=Kingfish Blues
EXTD=Document Records, Austria 
EXTT0=
EXTT1=
EXTT2=
EXTT3=
EXTT4=
EXTT5=
EXTT6=
EXTT7=
EXTT8=
EXTT9=
EXTT10=
EXTT11=
EXTT12=
EXTT13=
EXTT14=
EXTT15=
EXTT16=
EXTT17=
EXTT18=
EXTT19=
EXTT20=
EXTT21=
EXTT22=
PLAYORDER=
